<svg width="24" height="24" viewBox="0 0 24 24" fill="none" xmlns="http://www.w3.org/2000/svg">
<path fill-rule="evenodd" clip-rule="evenodd" d="M8.368 4.21115L4.368 5.54415C3.551 5.81615 3 6.58115 3 7.44215V18.3821C3 19.1251 3.782 19.6091 4.447 19.2761L8.105 17.4471C8.668 17.1651 9.331 17.1651 9.894 17.4471L14.105 19.5531C14.668 19.8351 15.331 19.8351 15.894 19.5531L19.894 17.5531C20.572 17.2141 21 16.5211 21 15.7641V5.38715C21 4.70415 20.331 4.22215 19.684 4.43815L15.633 5.78815C15.222 5.92515 14.779 5.92515 14.368 5.78815L9.632 4.21115C9.222 4.07415 8.778 4.07415 8.368 4.21115V4.21115Z" stroke="#0A0C13" stroke-width="1.5" stroke-linecap="round" stroke-linejoin="round"/>
<path d="M15 9.53027V15.4703" stroke="#0A0C13" stroke-width="1.5" stroke-linecap="round" stroke-linejoin="round"/>
<path d="M9 7.53027V13.4703" stroke="#0A0C13" stroke-width="1.5" stroke-linecap="round" stroke-linejoin="round"/>
</svg>
