<svg width="24" height="24" viewBox="0 0 24 24" fill="none" xmlns="http://www.w3.org/2000/svg">
<path fill-rule="evenodd" clip-rule="evenodd" d="M19.1189 6V18C19.1189 19.105 18.2239 20 17.1189 20H6.88086C5.77586 20 4.88086 19.105 4.88086 18V6C4.88086 4.895 5.77586 4 6.88086 4H17.1199C18.2239 4 19.1189 4.895 19.1189 6Z" stroke="#0A0C13" stroke-width="1.5" stroke-linecap="round" stroke-linejoin="round"/>
<path d="M19.1191 6H20.0001C21.1051 6 22.0001 6.895 22.0001 8V16C22.0001 17.105 21.1051 18 20.0001 18H19.1191" stroke="#0A0C13" stroke-width="1.5" stroke-linecap="round" stroke-linejoin="round"/>
<path d="M4.881 18H4C2.895 18 2 17.105 2 16V8C2 6.895 2.895 6 4 6H4.881" stroke="#0A0C13" stroke-width="1.5" stroke-linecap="round" stroke-linejoin="round"/>
<path fill-rule="evenodd" clip-rule="evenodd" d="M11.324 8.51269C11.4509 8.2555 11.7128 8.09265 11.9996 8.09265C12.2863 8.09265 12.5483 8.2555 12.6751 8.51269L13.2262 9.62986C13.3359 9.85225 13.5481 10.0064 13.7935 10.0421L15.026 10.2212C15.3097 10.2624 15.5454 10.4611 15.6341 10.7338C15.7227 11.0064 15.6489 11.3058 15.4437 11.5059L14.5515 12.3761C14.3741 12.5491 14.2932 12.7984 14.3351 13.0427L14.5456 14.2701C14.5941 14.5527 14.4779 14.8383 14.246 15.0069C14.014 15.1754 13.7065 15.1976 13.4527 15.0643L12.35 14.4848C12.1306 14.3695 11.8685 14.3695 11.6491 14.4848L10.5464 15.0643C10.2926 15.1977 9.98508 15.1755 9.75312 15.0069C9.52117 14.8384 9.40502 14.5527 9.4535 14.2702L9.66402 13.0427C9.70593 12.7984 9.62498 12.5491 9.44755 12.3761L8.55547 11.5059C8.35023 11.3058 8.27642 11.0064 8.36505 10.7338C8.45368 10.4611 8.68939 10.2624 8.9731 10.2212L10.2057 10.0421C10.4511 10.0064 10.6632 9.85225 10.7729 9.62986L11.324 8.51269Z" stroke="#0A0C13" stroke-width="1.5" stroke-linecap="round" stroke-linejoin="round"/>
</svg>
